<svg width="1440" height="1024" viewBox="0 0 1440 1024" fill="none" xmlns="http://www.w3.org/2000/svg">
<g clip-path="url(#clip0_16_170)">
<rect width="1440" height="1024" rx="70" fill="#302C42"/>
<path d="M1437 170C1347.77 184.843 1177.91 269.224 1212.27 487.998C1246.63 706.772 1100.41 813.155 1023 839" stroke="url(#paint0_linear_16_170)" stroke-width="6"/>
<path d="M1442.5 420.5C1195.67 408.333 703.1 474.9 707.5 838.5" stroke="url(#paint1_linear_16_170)" stroke-width="6"/>
<path d="M929.193 0C925.912 140.127 963.209 433.314 1138.64 485.053C1314.08 536.792 1317.78 746.576 1297.7 845" stroke="url(#paint2_linear_16_170)" stroke-width="6"/>
<path d="M2.5 274C105.5 312.167 294.4 477.8 226 835" stroke="url(#paint3_linear_16_170)" stroke-opacity="0.06" stroke-width="6"/>
</g>
<defs>
<linearGradient id="paint0_linear_16_170" x1="1387.5" y1="195" x2="1132" y2="761" gradientUnits="userSpaceOnUse">
<stop stop-color="#343045"/>
<stop offset="0.276042" stop-color="#8176AF"/>
<stop offset="0.739583" stop-color="#C0B7E8"/>
<stop offset="1" stop-color="#343045"/>
</linearGradient>
<linearGradient id="paint1_linear_16_170" x1="1404.5" y1="412" x2="718.5" y2="777" gradientUnits="userSpaceOnUse">
<stop stop-color="#343045"/>
<stop offset="0.213542" stop-color="#C0B7E8"/>
<stop offset="0.71875" stop-color="#8176AF"/>
<stop offset="1" stop-color="#343045"/>
</linearGradient>
<linearGradient id="paint2_linear_16_170" x1="942.5" y1="39.5" x2="1289" y2="814" gradientUnits="userSpaceOnUse">
<stop offset="0.0104167" stop-color="#343045"/>
<stop offset="0.229167" stop-color="#C0B7E8"/>
<stop offset="0.776042" stop-color="#8176AF"/>
<stop offset="1" stop-color="#343045"/>
</linearGradient>
<linearGradient id="paint3_linear_16_170" x1="-22.5" y1="233.5" x2="334" y2="873.5" gradientUnits="userSpaceOnUse">
<stop stop-color="#343045"/>
<stop offset="0.151042" stop-color="#C0B7E8"/>
<stop offset="0.760417" stop-color="#8176AF"/>
<stop offset="0.973958" stop-color="#343045"/>
</linearGradient>
<clipPath id="clip0_16_170">
<rect width="1440" height="1024" rx="70" fill="white"/>
</clipPath>
</defs>
</svg>
